Coordinates
version=1
nRows=43
nColumns=12
inDegrees=yes

Units are S.I. units (second, meters, Newtons, ...)
Angles are in degrees

endheader
time	SC_y	SC_z	SC_x	AC_y	AC_z	AC_x	GH_y	GH_z	GH_yy	EL_x	PS_y
       0.0              -47.91          16.03          39.28          36.86         -11.15         -19.21         -70.17          4.444          105.7          136.6          47.56
   0.03357              -47.91          16.03          39.28          36.87         -11.15         -19.21         -70.18          4.449          105.6          136.5          47.56
   0.06714              -47.91          16.03          39.29          36.87         -11.15         -19.21         -70.19          4.455          105.6          136.5          47.57
    0.1007              -47.91          16.03          39.29          36.87         -11.15         -19.21          -70.2          4.461          105.6          136.5          47.57
    0.1343              -47.92          16.03           39.3          36.88         -11.15         -19.21         -70.21          4.467          105.6          136.5          47.57
    0.1679              -47.92          16.04          39.31          36.88         -11.15         -19.21         -70.22          4.474          105.6          136.5          47.58
    0.2014              -47.92          16.04          39.32          36.88         -11.15         -19.21         -70.23          4.481          105.6          136.5          47.58
     0.235              -47.92          16.04          39.32          36.89         -11.14          -19.2         -70.25          4.489          105.6          136.4          47.59
    0.2686              -47.92          16.04          39.33          36.89         -11.14          -19.2         -70.26          4.497          105.6          136.4          47.59
    0.3021              -47.92          16.05          39.34           36.9         -11.14          -19.2         -70.27          4.506          105.5          136.4          47.59
    0.3357              -47.93          16.05          39.35          36.91         -11.14          -19.2         -70.29          4.516          105.5          136.4           47.6
    0.3693              -47.93          16.05          39.36          36.91         -11.14          -19.2         -70.31          4.526          105.5          136.3           47.6
    0.4028              -47.93          16.06          39.38          36.92         -11.14         -19.19         -70.33          4.537          105.5          136.3          47.61
    0.4364              -47.94          16.06          39.39          36.93         -11.13         -19.19         -70.35          4.549          105.5          136.3          47.62
      0.47              -47.94          16.07           39.4          36.93         -11.13         -19.19         -70.37          4.562          105.4          136.2          47.62
    0.5036              -47.94          16.07          39.42          36.94         -11.13         -19.19         -70.39          4.576          105.4          136.2          47.63
    0.5371              -47.95          16.08          39.44          36.95         -11.12         -19.18         -70.42          4.592          105.4          136.2          47.64
    0.5707              -47.95          16.08          39.45          36.96         -11.12         -19.18         -70.44          4.608          105.3          136.1          47.65
    0.6043              -47.95          16.09          39.47          36.97         -11.12         -19.18         -70.47          4.627          105.3          136.1          47.66
    0.6378              -47.96           16.1           39.5          36.99         -11.11         -19.17         -70.51          4.647          105.3          136.0          47.67
    0.6714              -47.96          16.11          39.52           37.0         -11.11         -19.17         -70.54          4.669          105.2          136.0          47.68
     0.705              -47.97          16.11          39.55          37.01         -11.11         -19.17         -70.58          4.693          105.2          135.9          47.69
    0.7385              -47.98          16.12          39.57          37.03          -11.1         -19.16         -70.63           4.72          105.1          135.8           47.7
    0.7721              -47.98          16.13          39.61          37.05         -11.09         -19.15         -70.67          4.749          105.1          135.7          47.72
    0.8057              -47.99          16.15          39.64          37.07         -11.09         -19.15         -70.73          4.782          105.0          135.6          47.74
    0.8393               -48.0          16.16          39.68          37.09         -11.08         -19.14         -70.79          4.819          104.9          135.5          47.76
    0.8728              -48.01          16.17          39.73          37.12         -11.07         -19.13         -70.86           4.86          104.9          135.4          47.78
    0.9064              -48.02          16.19          39.78          37.15         -11.07         -19.13         -70.93          4.906          104.8          135.3           47.8
      0.94              -48.04          16.21          39.83          37.18         -11.06         -19.12         -71.02          4.958          104.7          135.2          47.83
    0.9735              -48.05          16.23           39.9          37.21         -11.04          -19.1         -71.12          5.018          104.6          135.0          47.86
     1.007              -48.07          16.25          39.97          37.26         -11.03         -19.09         -71.23          5.085          104.4          134.8          47.89
     1.041              -48.09          16.28          40.05           37.3         -11.02         -19.08         -71.36          5.163          104.3          134.6          47.93
     1.074              -48.11          16.31          40.15          37.36          -11.0         -19.06          -71.5          5.253          104.1          134.4          47.98
     1.108              -48.13          16.35          40.26          37.42         -10.98         -19.04         -71.68          5.357          103.9          134.1          48.04
     1.141              -48.16          16.39           40.4           37.5         -10.96         -19.02         -71.88          5.479          103.7          133.8           48.1
     1.175               -48.2          16.44          40.55          37.58         -10.93         -18.99         -72.11          5.623          103.4          133.4          48.17
     1.209              -48.24           16.5          40.74          37.69          -10.9         -18.96          -72.4          5.793          103.1          132.9          48.26
     1.242              -48.29          16.58          40.96          37.81         -10.86         -18.92         -72.73          5.998          102.7          132.4          48.37
     1.276              -48.35          16.67          41.23          37.97         -10.81         -18.87         -73.14          6.246          102.2          131.7           48.5
     1.309              -48.43          16.77          41.55          38.15         -10.75         -18.82         -73.64          6.549          101.7          130.9          48.65
     1.343              -48.52          16.91          41.96          38.38         -10.68         -18.75         -74.26          6.922          100.9          129.9          48.85
     1.376              -48.63          17.07          42.46          38.67          -10.6         -18.66         -75.02          7.388          100.1          128.6          49.09
      1.41              -48.77          17.28           43.1          39.03         -10.48         -18.55         -75.99          7.975          98.94          127.0          49.39
